<?xml version="1.0" encoding="utf-8"?>
<!DOCTYPE svg PUBLIC "-//W3C//DTD SVG 1.1//EN" "http://www.w3.org/Graphics/SVG/1.1/DTD/svg11.dtd">
<svg viewBox="0 0 236 70" version="1.1" xmlns="http://www.w3.org/2000/svg" xmlns:xlink="http://www.w3.org/1999/xlink" xml:space="preserve">
  <g>
    <path class="svg_logo-symbol" fill="#3863a0" d="M41.9,28.5L16.3,2.9l-5.2,5.2l9.6,9.6L0,38.4L25.6,64l5.2-5.2l-9.6-9.6L41.9,28.5z M11.5,39.3l15.4-15.4l3.2,3.2L14.7,42.5L11.5,39.3z"/>
  </g>
  <g>
    <path class="svg_logo-letter" fill="#303030" d="M74.6,44.4v-2.7c-1.4,1.9-3.6,3.2-6.2,3.2c-4.8,0-8.1-3.6-8.1-9.6c0-5.9,3.4-9.6,8.1-9.6c2.5,0,4.7,1.2,6.2,3.2v-9.7h2.8v25.3H74.6z M74.6,39.4v-8.3c-1-1.6-3.2-3-5.5-3c-3.7,0-5.9,3-5.9,7.1c0,4.1,2.2,7,5.9,7C71.4,42.3,73.6,41,74.6,39.4z"/>
    <path class="svg_logo-letter" fill="#303030" d="M81.1,35.2c0-5.3,3.8-9.6,9-9.6c5.5,0,8.8,4.3,8.8,9.8v0.7H84.1c0.2,3.4,2.6,6.3,6.6,6.3c2.1,0,4.2-0.8,5.7-2.3l1.4,1.9c-1.9,1.8-4.3,2.8-7.3,2.8C85,44.8,81.1,40.9,81.1,35.2z M90.1,28c-3.9,0-5.8,3.3-6,6.1h12C96.1,31.3,94.3,28,90.1,28z"/>
    <path class="svg_logo-letter" fill="#303030" d="M107.4,44.4l-7.6-18.3h3.1l6.1,15l6.1-15h3.1l-7.6,18.3H107.4z"/>
    <path class="svg_logo-letter" fill="#303030" d="M119.1,35.2c0-5.3,3.8-9.6,9-9.6c5.5,0,8.8,4.3,8.8,9.8v0.7h-14.8c0.2,3.4,2.6,6.3,6.6,6.3c2.1,0,4.2-0.8,5.7-2.3l1.4,1.9c-1.9,1.8-4.3,2.8-7.3,2.8C123,44.8,119.1,40.9,119.1,35.2z M128.1,28c-3.9,0-5.8,3.3-6,6.1h12C134.1,31.3,132.2,28,128.1,28z"/>
    <path class="svg_logo-letter" fill="#303030" d="M140.5,44.4V19.1h2.8v25.3H140.5z"/>
    <path class="svg_logo-letter" fill="#303030" d="M147.1,35.2c0-5.3,3.5-9.6,9.1-9.6s9.1,4.3,9.1,9.6c0,5.3-3.5,9.6-9.1,9.6S147.1,40.5,147.1,35.2zM162.2,35.2c0-3.7-2.2-7-6.1-7s-6.1,3.3-6.1,7c0,3.7,2.2,7.1,6.1,7.1S162.2,38.9,162.2,35.2z"/>
    <path class="svg_logo-letter" fill="#303030" d="M171.7,41.6v9.7h-2.8V26.1h2.8v2.7c1.3-1.9,3.6-3.2,6.2-3.2c4.8,0,8.1,3.6,8.1,9.6c0,5.9-3.3,9.6-8.1,9.6C175.3,44.8,173.2,43.6,171.7,41.6z M183,35.2c0-4.1-2.2-7-5.9-7c-2.2,0-4.5,1.3-5.5,2.9v8.3c1,1.6,3.2,3,5.5,3C180.8,42.3,183,39.2,183,35.2z"/>
    <path class="svg_logo-letter" fill="#303030" d="M188.5,35.2c0-5.3,3.8-9.6,9-9.6c5.5,0,8.8,4.3,8.8,9.8v0.7h-14.8c0.2,3.4,2.6,6.3,6.6,6.3c2.1,0,4.2-0.8,5.7-2.3l1.4,1.9c-1.9,1.8-4.3,2.8-7.3,2.8C192.4,44.8,188.5,40.9,188.5,35.2z M197.5,28c-3.9,0-5.8,3.3-6,6.1h12C203.4,31.3,201.6,28,197.5,28z"/>
    <path class="svg_logo-letter" fill="#303030" d="M209.9,44.4V26.1h2.8V29c1.5-1.9,3.6-3.3,6.1-3.3v2.9c-0.3,0-0.7-0.1-1.1-0.1c-1.8,0-4.2,1.4-5,2.9v13H209.9z"/>
    <path class="svg_logo-letter" fill="#303030" d="M219.9,41.9l1.4-2c1.2,1.4,3.5,2.6,6,2.6c2.8,0,4.4-1.3,4.4-3.1c0-4.4-11.3-1.7-11.3-8.5c0-2.9,2.4-5.3,6.8-5.3c3.1,0,5.3,1.2,6.8,2.7l-1.3,2c-1.1-1.3-3.1-2.3-5.5-2.3c-2.5,0-4.1,1.2-4.1,2.9c0,4,11.3,1.4,11.3,8.5c0,3.1-2.5,5.5-7.2,5.5C224.3,44.8,221.8,43.9,219.9,41.9z"/>
  </g>
</svg>
